# xmcd
#
# Track frame offsets:
#	150
#	17261
#	33619
#	61546
#	88611
#	106333
#	125411
#	140240
#	161517
#	179903
#	205487
#	229947
#	242300
#	267035
#	289565
#	302223
#
# Disc length: 4353 seconds
# Revision: 1
# Processed by: cddbd v1.5.2PL0 Copyright (c) Steve Scherf et al.
# Submitted via: dBpowerAMP V12.0
#
DISCID=db10ff10
DTITLE=Various Artist - Texas All-Star: Big Band Bash
DYEAR=2006
DGENRE=Blues
TTITLE0=Johnny Nicholas - Broke Again
TTITLE1=Greg Piccolo - Baby I'm Gone
TTITLE2=Jimmie Vaughan - The Ironic Twist
TTITLE3=Johnny Nicholas - Down in the Alley
TTITLE4=John Mills - Don't Mean a Thing If It Ain't Got That Swing
TTITLE5=Joe "King" Carrasco - Mescal Road
TTITLE6=Stephen Bruton - This Old World Needs Love
TTITLE7=Floyd Domino - All Blues
TTITLE8=Johnny Nicholas - Good Morning Judge
TTITLE9=Greg Piccolo - Somewhere Over the Rainbow
TTITLE10=Joel Guzman - Maybe, Maybe
TTITLE11=Augie Meyers - I'm in Love Again
TTITLE12=Al Gomez - Can't Stop the Crying
TTITLE13=Johnny Nicholas - Before I Grow Too Old
TTITLE14=Greg Piccolo - The Hammer
TTITLE15=Jimmie Vaughan - Texas Flood
EXTD=
EXTT0=
EXTT1=
EXTT2=
EXTT3=
EXTT4=
EXTT5=
EXTT6=
EXTT7=
EXTT8=
EXTT9=
EXTT10=
EXTT11=
EXTT12=
EXTT13=
EXTT14=
EXTT15=
PLAYORDER=
